# xmcd CD database file
#
# Track frame offsets:
#	150
#	16073
#	32045
#	47702
#	58460
#	70493
#	84849
#	104460
#	115350
#	129658
#	142096
#	156905
#
# Disc length: 2208 seconds
#
# Revision: 0
# Processed by: cddbd v1.5.2PL0 Copyright (c) Steve Scherf et al.
# Submitted via: CDex 1.51
#
DISCID=ac089e0c
DTITLE=Maurice Vander - Piano jazz
DYEAR=1955
DGENRE=Jazz
TTITLE0=Pennies from Heaven
TTITLE1=I'll remember April
TTITLE2=Nearness of you
TTITLE3=Strike up the band
TTITLE4=How about you?
TTITLE5=There will never be another you
TTITLE6=Everything happens to me
TTITLE7=Get happy
TTITLE8=My Funny Valentine
TTITLE9=Fascinating rhythm
TTITLE10=Autumn in new York
TTITLE11=One bass hit
EXTD=YEAR: 1955
EXTT0=
EXTT1=
EXTT2=
EXTT3=
EXTT4=
EXTT5=
EXTT6=
EXTT7=
EXTT8=
EXTT9=
EXTT10=
EXTT11=
PLAYORDER=
